<?xml version="1.0" encoding="iso-8859-1"?>
<!-- Uploaded to: SVG Repo, www.svgrepo.com, Generator: SVG Repo Mixer Tools -->
<!DOCTYPE svg PUBLIC "-//W3C//DTD SVG 1.1//EN" "http://www.w3.org/Graphics/SVG/1.1/DTD/svg11.dtd">
<svg fill="#000000" height="800px" width="800px" version="1.1" id="Capa_1" xmlns="http://www.w3.org/2000/svg" xmlns:xlink="http://www.w3.org/1999/xlink" 
	 viewBox="0 0 364.369 364.369" xml:space="preserve">
<path d="M167.743,206.508c-4.232-2.714-7.792-6.555-10.333-11.157c-1.797-3.256-5.313-4.963-8.794-4.606
	c-34.627-1.104-68.8-3.95-101.57-8.458c-4.929-0.675-9.465,2.765-10.143,7.689s2.765,9.465,7.689,10.143
	c0.76,0.104,1.518,0.208,2.279,0.311c7.689,57.582,51.16,104.014,107.991,115.54v1.824c0,4.971,4.029,9,9,9s9-4.029,9-9V214.856
	c0.002-0.123,0.002-0.245-0.001-0.368C172.807,210.968,170.731,207.938,167.743,206.508z M154.863,297.545
	c-46.026-10.825-81.292-48.21-89.426-94.799c25.793,2.957,52.289,4.926,79.063,5.871c2.907,4.15,6.405,7.805,10.363,10.827V297.545z
	 M146.494,97.526c2.375,4.367,0.759,9.832-3.608,12.206c-11.066,6.017-20.763,14.641-28.042,24.94
	c-1.753,2.48-4.534,3.806-7.357,3.806c-1.796,0-3.609-0.536-5.187-1.651c-4.06-2.869-5.024-8.485-2.155-12.544
	c8.862-12.538,20.668-23.038,34.144-30.364C138.655,91.543,144.119,93.16,146.494,97.526z M227.107,262.319
	c-2.847-4.074-1.853-9.686,2.221-12.533c9.68-6.765,17.958-15.715,23.939-25.883c2.521-4.285,8.037-5.714,12.321-3.194
	c4.284,2.521,5.714,8.037,3.194,12.321c-7.282,12.379-17.36,23.275-29.143,31.51c-1.57,1.097-3.368,1.624-5.148,1.624
	C231.652,266.165,228.857,264.824,227.107,262.319z M328.518,189.77c-0.686-4.923-5.235-8.356-10.156-7.671
	c-34.405,4.797-70.109,7.931-103.262,9.064c-0.351,0.006-0.7,0.032-1.046,0.078c-1.294,0.17-2.499,0.613-3.555,1.269
	c-1.055,0.652-1.987,1.53-2.716,2.61c-0.188,0.277-0.361,0.566-0.518,0.865c-2.103,3.812-5.098,7.146-8.677,9.657
	c-0.335,0.225-0.655,0.472-0.957,0.738c-0.765,0.674-1.393,1.457-1.875,2.309c-0.659,1.161-1.067,2.483-1.151,3.893
	c-0.014,0.223-0.019,0.447-0.016,0.671v104.542c0,4.971,4.029,9,9,9s9-4.029,9-9v-2.489c27.479-6.239,51.985-20.627,71.005-41.717
	c18.616-20.641,30.281-45.86,33.91-73.201c1.116-0.152,2.231-0.306,3.344-0.461C325.77,199.24,329.204,194.693,328.518,189.77z
	 M212.587,296.768v-79.245c2.919-2.517,5.527-5.394,7.744-8.54c25.398-1,52.141-3.128,78.589-6.24
	C290.961,247.727,256.863,285.004,212.587,296.768z M182.186,0C81.729,0,0,81.728,0,182.185
	c0,100.457,81.728,182.184,182.185,182.184c100.456,0,182.183-81.728,182.183-182.184C364.369,81.728,282.642,0,182.186,0z
	 M182.186,346.369C91.654,346.369,18,272.716,18,182.185C18,91.653,91.654,18,182.186,18c90.531,0,164.183,73.653,164.183,164.185
	C346.369,272.716,272.716,346.369,182.186,346.369z M207.08,167.786c0.208,0.396,0.445,0.773,0.708,1.131
	c0.764,1.045,1.725,1.886,2.801,2.498c1.108,0.633,2.361,1.037,3.692,1.148c0.431,0.037,0.866,0.044,1.299,0.018
	c40.197-1.529,75.106-4.605,103.764-9.145c4.909-0.778,8.259-5.388,7.481-10.297s-5.384-8.261-10.297-7.481
	c-0.88,0.139-1.764,0.277-2.657,0.414c-7.522-27.419-23.693-52.158-45.972-70.151c-24.16-19.512-54.601-30.258-85.715-30.258
	c-61.79,0-115.539,41.168-131.709,100.469c-0.772-0.121-1.545-0.243-2.315-0.365c-4.905-0.786-9.522,2.563-10.305,7.471
	c-0.783,4.909,2.562,9.522,7.471,10.305c32.668,5.208,67.192,8.5,102.611,9.784c0.111,0.004,0.221,0.006,0.332,0.006
	c0.878,0,1.728-0.126,2.533-0.363c2.485-0.477,4.756-1.994,6.114-4.36c5.159-8.989,14.937-14.755,25.519-15.048
	C192.57,153.285,202.022,158.727,207.08,167.786z M181.937,135.569c-14.989,0.415-28.995,7.8-37.706,19.601
	c-25.92-1.064-51.31-3.228-75.781-6.452c14.736-50.314,60.842-85.055,113.736-85.055c53.187,0,98.923,34.539,113.685,84.872
	c-22.307,2.719-47.766,4.684-76.014,5.862C211.077,142.253,197.01,135.149,181.937,135.569z"/>
</svg>